Coordinates
version=1
nRows=8
nColumns=33
inDegrees=yes

Units are S.I. units (second, meters, Newtons, ...)
Angles are in degrees.

endheader
time	ground_thorax_rot_x	ground_thorax_rot_y	ground_thorax_rot_z	ground_thorax_tx	ground_thorax_ty	ground_thorax_tz	clav_prot_r	clav_elev_r	scapula_abduction_r	scapula_elevation_r	scapula_upward_rot_r	scapula_winging_r	shoulder_elv_r	plane_of_elev_r	axial_rot_r	elbow_flexion_r	pro_sup_r	wrist_flex_r	wrist_dev_r	clav_prot_l	clav_elev_l	scapula_abduction_l	scapula_elevation_l	scapula_upward_rot_l	scapula_winging_l	shoulder_elv_l	plane_of_elev_l	axial_rot_l	elbow_flexion_l	pro_sup_l	wrist_flex_l	wrist_dev_l
      6.18000000	     -5.28925609	      4.47089260	     11.89072012	     -0.10925419	      1.02779571	      0.00466375	     17.17032560	    -12.69533383	     43.21290238	    -13.17508096	     23.87728638	    -12.56348378	     -2.18614400	    -53.70706008	    119.37471449	    -33.74516527	   -139.98828115	      3.27105856	      0.88693022	     25.64528384	    -10.67836950	    -38.67486671	     -5.26053326	    -22.86025653	     13.41228939	     58.05058537	      2.87668498	     10.91648517	     12.83982508	     22.23340330	     10.07360466	     -7.85222579
      6.19000000	     -5.33094069	      4.58361946	     11.90001984	     -0.10975026	      1.02766816	      0.00470345	     17.18647367	    -12.67796318	     43.19793324	    -13.14233628	     23.81561436	    -12.57803415	     -2.20745407	    -53.76096071	    119.37797738	    -33.75475460	   -140.00696634	      3.26214913	      0.88098654	     25.60966031	    -10.67507668	    -38.62422680	     -5.24641525	    -22.81697283	     13.38389985	     58.07817724	      2.88055708	     10.97282670	     12.89305636	     22.19804904	     10.07560680	     -7.85783099
      6.20000000	     -5.34851984	      4.58065412	     11.89656688	     -0.11024222	      1.02754189	      0.00460992	     17.18370801	    -12.65939299	     43.17550046	    -13.12048891	     23.78767979	    -12.58375812	     -2.20338588	    -53.80077710	    119.36291687	    -33.75921674	   -140.01242837	      3.26116506	      0.87645097	     25.60140886	    -10.66573443	    -38.60965192	     -5.24772565	    -22.80320526	     13.38337945	     58.09669434	      2.87500522	     10.99192705	     12.90768600	     22.18983277	     10.07354239	     -7.85952924
      6.21000000	     -5.29359020	      4.59722726	     12.03230402	     -0.10980314	      1.02743436	      0.00487479	     17.14597141	    -12.59592934	     42.76738507	    -12.93180383	     23.26117555	    -12.50664295	     -2.57351690	    -53.75432170	    119.14061082	    -34.64288645	   -140.39548891	      3.45321373	      0.65607896	     25.25505091	    -10.74526380	    -38.02457023	     -5.22509505	    -22.85706709	     12.99424743	     58.08350842	      2.59383299	     11.85764595	     13.50069628	     21.82804928	     10.00773185	     -7.97009727
      6.22000000	     -5.29758395	      4.58731086	     12.02013665	     -0.11045289	      1.02735069	      0.00484773	     17.14487537	    -12.57942212	     42.74525603	    -12.90990995	     23.23059727	    -12.50981927	     -2.56949292	    -53.80057776	    119.12551144	    -34.63628157	   -140.40202628	      3.45193098	      0.65175778	     25.24749470	    -10.72951753	    -38.01515100	     -5.23191102	    -22.84256925	     12.99677656	     58.10915781	      2.58663825	     11.86824941	     13.51169090	     21.82310368	     10.00484162	     -7.97198862
      6.23000000	     -5.21266073	      4.62566083	     12.04429340	     -0.11012938	      1.02721536	      0.00500576	     17.10668654	    -12.55556872	     42.38280891	    -12.77123283	     22.77440901	    -12.41982487	     -2.78045589	    -53.81298966	    118.82986216	    -35.43005400	   -140.80826490	      3.69609444	      0.41734557	     24.96249846	    -10.75314491	    -37.53311936	     -5.28427933	    -22.96469547	     12.68707173	     58.11919262	      2.43169989	     12.48646190	     14.26480114	     21.58304522	      9.89844483	     -8.15084769
      6.24000000	     -5.32969528	      4.26554311	     12.14427399	     -0.11003338	      1.02816760	      0.00478357	     17.23448381	    -13.48680975	     42.25962147	    -13.45976460	     22.37822515	    -11.83177563	     -3.03747695	    -54.46150225	    118.91461701	    -35.87693015	   -144.23178692	      4.39154210	     -0.60557056	     24.04234688	    -11.07982625	    -35.94951524	     -5.21919241	    -23.31844164	     11.62015697	     58.96149279	      1.99969474	     12.38493281	     14.34960566	     21.09617822	      9.80434124	     -8.63332985
      6.25000000	     -5.26136515	      4.25453900	     11.94802291	     -0.11006638	      1.02780132	      0.00494319	     17.16666105	    -13.26201558	     42.04223523	    -13.21901079	     22.18850865	    -11.89868189	     -3.10294509	    -54.33049017	    118.86598455	    -36.49163979	   -144.47376739	      4.55165740	     -0.73027793	     23.91822670	    -10.94346302	    -35.75949264	     -5.34114052	    -23.31857391	     11.54229528	     58.96935233	      1.98563449	     12.70664391	     14.94024911	     20.97816460	      9.74121759	     -8.73849840
